<svg xmlns="http://www.w3.org/2000/svg" xmlns:xlink="http://www.w3.org/1999/xlink" width="37" height="37" viewBox="0 0 37 37">
  <defs>
    <style>
      .cls-1 {
        fill: none;
      }

      .cls-2 {
        fill-rule: evenodd;
        fill: url(#linear-gradient);
      }
    </style>
    <linearGradient id="linear-gradient" x1="0.061" y1="0.097" x2="0.943" y2="0.895" gradientUnits="objectBoundingBox">
      <stop offset="0" stop-color="#4fe7dc"/>
      <stop offset="0.501" stop-color="#02c39a"/>
      <stop offset="1" stop-color="#028090"/>
    </linearGradient>
  </defs>
  <g id="Instagram_1_" transform="translate(0)">
    <rect id="Rectangle_1100" data-name="Rectangle 1100" class="cls-1" width="36.551" height="36.551" transform="translate(0 0.152)"/>
    <path id="Instagram" class="cls-2" d="M30.6,8.625a2.22,2.22,0,1,1-2.22-2.22A2.22,2.22,0,0,1,30.6,8.625ZM18.5,24.667A6.167,6.167,0,1,1,24.667,18.5,6.167,6.167,0,0,1,18.5,24.667ZM18.5,9A9.5,9.5,0,1,0,28,18.5,9.5,9.5,0,0,0,18.5,9Zm0-5.666c4.94,0,5.525.019,7.475.108a10.234,10.234,0,0,1,3.435.637,5.733,5.733,0,0,1,2.127,1.384A5.728,5.728,0,0,1,32.922,7.59a10.241,10.241,0,0,1,.637,3.435c.089,1.951.108,2.536.108,7.476s-.019,5.525-.108,7.475a10.234,10.234,0,0,1-.637,3.435,6.128,6.128,0,0,1-3.511,3.511,10.241,10.241,0,0,1-3.435.637c-1.951.089-2.536.108-7.475.108s-5.525-.019-7.476-.108a10.234,10.234,0,0,1-3.435-.637,5.733,5.733,0,0,1-2.127-1.384,5.732,5.732,0,0,1-1.384-2.127,10.241,10.241,0,0,1-.637-3.435c-.089-1.951-.108-2.536-.108-7.475s.019-5.525.108-7.476A10.233,10.233,0,0,1,4.078,7.59,5.733,5.733,0,0,1,5.462,5.462,5.728,5.728,0,0,1,7.589,4.078a10.241,10.241,0,0,1,3.435-.637C12.975,3.352,13.56,3.333,18.5,3.333ZM18.5,0c-5.024,0-5.654.021-7.627.111a13.579,13.579,0,0,0-4.491.86A9.065,9.065,0,0,0,3.105,3.105,9.065,9.065,0,0,0,.971,6.382a13.58,13.58,0,0,0-.86,4.491C.021,12.846,0,13.476,0,18.5s.021,5.654.111,7.627a13.58,13.58,0,0,0,.86,4.491,9.065,9.065,0,0,0,2.134,3.277,9.069,9.069,0,0,0,3.277,2.134,13.58,13.58,0,0,0,4.491.86c1.973.09,2.6.111,7.627.111s5.654-.021,7.627-.111a13.58,13.58,0,0,0,4.491-.86,9.46,9.46,0,0,0,5.411-5.411,13.58,13.58,0,0,0,.86-4.491c.09-1.973.111-2.6.111-7.627s-.021-5.654-.111-7.627a13.58,13.58,0,0,0-.86-4.491,9.069,9.069,0,0,0-2.134-3.277A9.069,9.069,0,0,0,30.618.971a13.58,13.58,0,0,0-4.491-.86C24.154.021,23.524,0,18.5,0Z"/>
  </g>
</svg>
